<?xml version="1.0" encoding="UTF-8"?>
<!-- Generator: visioncortex VTracer 0.6.3 -->
<svg version="1.1" xmlns="http://www.w3.org/2000/svg" width="1280" height="1280">
<path d="M0 0 C422.4 0 844.8 0 1280 0 C1280 422.4 1280 844.8 1280 1280 C857.6 1280 435.2 1280 0 1280 C0 857.6 0 435.2 0 0 Z " fill="#FAFCFC" transform="translate(0,0)"/>
<path d="M0 0 C2.88 1.34 5.55 2.95 8.25 4.62 C9 5.08 9.74 5.53 10.51 6 C12.68 7.32 14.84 8.66 17 10 C18.06 10.65 19.11 11.3 20.2 11.97 C28.44 17.13 36.39 22.65 44.06 28.62 C44.98 29.34 45.9 30.05 46.85 30.79 C49.96 33.98 49.96 36.73 50.09 41.1 C50.07 42.26 50.06 43.42 50.04 44.61 C50.02 45.93 50 47.25 49.99 48.6 C49.96 50.03 49.94 51.46 49.91 52.89 C49.89 54.36 49.87 55.83 49.85 57.3 C49.8 60.37 49.76 63.45 49.7 66.52 C49.64 70.47 49.58 74.41 49.53 78.36 C49.48 81.39 49.43 84.42 49.39 87.46 C49.36 88.91 49.34 90.37 49.32 91.82 C49.29 93.85 49.26 95.88 49.22 97.91 C49.2 99.06 49.18 100.22 49.16 101.41 C49 104 49 104 48 105 C43.86 105.25 39.71 105.19 35.56 105.19 C34.39 105.2 33.22 105.21 32.01 105.22 C30.9 105.23 29.78 105.23 28.63 105.23 C27.6 105.23 26.57 105.24 25.51 105.24 C23 105 23 105 21 103 C20.73 101.03 20.73 101.03 20.7 98.59 C20.68 97.67 20.66 96.76 20.65 95.81 C20.63 94.32 20.63 94.32 20.62 92.8 C20.6 91.78 20.59 90.76 20.57 89.71 C20.52 86.43 20.48 83.15 20.44 79.88 C20.39 76.62 20.35 73.36 20.29 70.1 C20.26 68.08 20.24 66.05 20.21 64.02 C20.09 54.37 20.09 54.37 18 45 C17.13 44.71 16.27 44.42 15.38 44.12 C11.87 42.96 9.71 41.48 6.79 39.3 C0.44 34.67 0.44 34.67 -7 33 C-9.47 34.77 -9.47 34.77 -12 37 C-13.67 37.71 -15.34 38.41 -17.03 39.08 C-20.27 40.6 -23.14 42.66 -26.08 44.7 C-28 46 -28 46 -30 47 C-31.14 50.17 -31.13 53.25 -31.14 56.6 C-31.14 57.75 -31.15 58.89 -31.16 60.07 C-31.16 61.34 -31.16 62.6 -31.16 63.9 C-31.16 65.25 -31.17 66.6 -31.17 67.95 C-31.19 71.67 -31.19 75.39 -31.2 79.11 C-31.21 83.12 -31.22 87.13 -31.24 91.14 C-31.26 98.09 -31.28 105.03 -31.29 111.98 C-31.31 122.03 -31.34 132.07 -31.37 142.12 C-31.42 158.42 -31.46 174.71 -31.5 191.01 C-31.54 206.84 -31.58 222.68 -31.63 238.51 C-31.63 239.97 -31.63 239.97 -31.64 241.47 C-31.65 246.36 -31.66 251.26 -31.68 256.15 C-31.79 296.77 -31.9 337.38 -32 378 C-29.11 378.96 -27.28 379.13 -24.27 379.13 C-23.31 379.13 -22.35 379.14 -21.37 379.14 C-20.34 379.14 -19.3 379.13 -18.24 379.13 C-16.65 379.13 -16.65 379.13 -15.03 379.14 C-12.8 379.14 -10.56 379.13 -8.32 379.13 C-4.88 379.13 -1.44 379.13 2 379.14 C4.17 379.14 6.34 379.13 8.51 379.13 C9.54 379.13 10.58 379.14 11.65 379.14 C12.6 379.14 13.55 379.13 14.53 379.13 C15.37 379.13 16.21 379.13 17.08 379.13 C19.01 379.21 19.01 379.21 20 378 C20.09 376.21 20.12 374.41 20.11 372.62 C20.11 371.45 20.11 370.28 20.11 369.08 C20.11 367.78 20.1 366.49 20.1 365.16 C20.1 363.79 20.09 362.43 20.09 361.06 C20.09 358.11 20.08 355.16 20.08 352.21 C20.06 347.55 20.06 342.89 20.05 338.24 C20.04 327.5 20.02 316.77 19.99 306.04 C19.97 296.21 19.96 286.37 19.95 276.54 C19.94 271.91 19.93 267.27 19.92 262.64 C19.91 259.76 19.91 256.88 19.91 254 C19.9 252.02 19.89 250.04 19.89 248.06 C19.89 246.89 19.89 245.72 19.89 244.51 C19.88 243.49 19.88 242.47 19.88 241.41 C20 239 20 239 21 237 C25.48 236.97 29.96 236.95 34.44 236.94 C35.72 236.93 37 236.92 38.31 236.91 C39.53 236.91 40.74 236.91 42 236.9 C43.68 236.89 43.68 236.89 45.41 236.89 C48 237 48 237 49 238 C49.11 239.81 49.14 241.62 49.15 243.43 C49.16 244.61 49.17 245.78 49.18 247 C49.18 248.3 49.19 249.61 49.19 250.95 C49.2 252.33 49.21 253.7 49.21 255.08 C49.23 258.06 49.25 261.03 49.26 264 C49.28 268.7 49.31 273.4 49.34 278.09 C49.4 288.91 49.46 299.73 49.51 310.55 C49.56 320.46 49.62 330.37 49.68 340.28 C49.71 344.96 49.73 349.63 49.75 354.3 C49.76 357.21 49.78 360.11 49.8 363.01 C49.81 365.01 49.82 367 49.82 369 C49.83 370.18 49.84 371.36 49.85 372.57 C49.85 373.6 49.86 374.63 49.86 375.69 C49.74 377.96 49.74 377.96 51 379 C52.92 379.16 54.85 379.25 56.79 379.32 C57.95 379.36 59.12 379.4 60.33 379.44 C62.18 379.5 62.18 379.5 64.06 379.56 C65.3 379.61 66.53 379.65 67.81 379.69 C70.87 379.8 73.94 379.9 77 380 C77 380.66 77 381.32 77 382 C78.32 382.66 79.64 383.32 81 384 C81 391.59 81 399.18 81 407 C78.21 408.39 75.9 408.15 72.78 408.17 C70.82 408.19 70.82 408.19 68.81 408.21 C68.11 408.22 67.41 408.22 66.69 408.23 C64.49 408.25 62.3 408.27 60.11 408.29 C53.87 408.37 47.63 408.43 41.39 408.48 C37.58 408.51 33.76 408.55 29.95 408.6 C28.49 408.61 27.04 408.63 25.58 408.63 C23.55 408.65 21.52 408.67 19.48 408.7 C18.32 408.71 17.17 408.72 15.97 408.73 C12.7 408.85 12.7 408.85 9 411 C9 447.63 9 484.26 9 522 C17.85 522 27.64 508.54 33.49 502.7 C37.65 498.5 41.64 494.21 45.49 489.74 C47.33 487.62 49.26 485.6 51.19 483.56 C56.97 477.16 61.73 470.06 66.62 462.97 C68.45 460.36 70.35 457.8 72.25 455.25 C76.53 449.39 80.28 443.23 84 437 C84.57 436.07 85.15 435.14 85.74 434.18 C89.85 427.39 93.28 420.37 96.6 413.18 C98.28 409.54 99.96 405.95 102 402.5 C108.35 391.64 111.9 379.94 115.7 368.01 C117.03 363.85 118.44 359.81 120.13 355.79 C122.29 350.57 123.47 345.26 124.62 339.75 C125.03 337.85 125.44 335.95 125.85 334.05 C126.03 333.22 126.2 332.39 126.38 331.54 C127 329 127 329 128.01 326.08 C129.03 322.92 129.56 319.96 130 316.67 C130.16 315.46 130.33 314.26 130.5 313.02 C130.66 311.76 130.83 310.49 131 309.19 C131.17 307.89 131.34 306.6 131.52 305.26 C131.85 302.69 132.19 300.11 132.52 297.53 C132.93 294.51 133.39 291.5 133.88 288.49 C134 287.71 134.11 286.94 134.24 286.14 C134.54 284.15 134.86 282.17 135.19 280.19 C134.93 275.8 133.22 274.91 130 272 C127.86 270.3 125.7 268.64 123.52 267 C116.64 261.69 110.43 255.89 104.33 249.72 C102.68 248.06 101.02 246.41 99.35 244.76 C98.26 243.67 97.17 242.57 96.07 241.47 C95.6 241 95.12 240.53 94.62 240.04 C93.91 239.32 93.91 239.32 93.19 238.57 C92.67 238.06 92.16 237.54 91.63 237 C90 235 90 235 88.37 231.97 C84.82 225.8 84.82 225.8 78.92 222.32 C72.54 221.22 66.08 221.5 59.63 221.64 C57.54 221.65 55.45 221.64 53.36 221.64 C47.88 221.63 42.4 221.69 36.92 221.77 C31.33 221.84 25.74 221.85 20.15 221.86 C13.88 221.87 7.6 221.89 1.33 221.96 C-0.1 221.97 -0.1 221.97 -1.55 221.99 C-3.33 222 -5.11 222.03 -6.89 222.05 C-12.78 222.11 -12.78 222.11 -15 221 C-15.25 216.54 -15.47 212.08 -15.69 207.62 C-15.76 206.35 -15.83 205.08 -15.91 203.77 C-15.96 202.56 -16.02 201.35 -16.07 200.1 C-16.13 198.98 -16.19 197.86 -16.25 196.71 C-16.13 195.37 -16.13 195.37 -16 194 C-12.88 191.92 -12.12 191.74 -8.56 191.68 C-7.65 191.66 -6.75 191.64 -5.81 191.62 C-4.32 191.6 -4.32 191.6 -2.8 191.58 C-1.75 191.56 -0.7 191.54 0.38 191.52 C3.86 191.46 7.34 191.42 10.82 191.38 C12.01 191.37 13.2 191.36 14.42 191.34 C20.72 191.28 27.01 191.23 33.3 191.19 C38.51 191.15 43.71 191.08 48.92 190.98 C55.2 190.86 61.49 190.8 67.78 190.78 C70.17 190.77 72.56 190.73 74.95 190.67 C94.69 190.21 94.69 190.21 99.44 194.63 C101.85 197.49 103.46 200.6 105 204 C105.74 205.17 106.5 206.33 107.29 207.46 C107.92 208.42 108.54 209.38 109.19 210.38 C120.79 227.09 136.87 241.03 154 251.73 C164.03 258.09 164.03 258.09 166 264 C166.35 267.49 166.6 270.79 165 274 C164.81 275.87 164.68 277.75 164.56 279.62 C162.98 301.62 159.61 323.65 153.58 344.87 C153.03 346.9 152.52 348.94 152.04 350.99 C149.39 362.24 145.82 373.1 142 384 C141.7 384.87 141.4 385.74 141.09 386.63 C131.88 412.62 119.44 437.88 104.34 460.92 C102.42 463.9 100.62 466.95 98.81 470 C95.71 475.06 92.25 479.59 88.43 484.11 C85.67 487.4 83.02 490.75 80.38 494.12 C79.9 494.73 79.43 495.33 78.94 495.95 C77.01 498.4 75.11 500.85 73.27 503.36 C68.9 509.32 63.74 514.38 58.48 519.55 C55.25 522.74 52.08 525.92 49.12 529.38 C41.34 538.49 32.48 545.76 23 553 C18.05 556.82 13.15 560.67 8.31 564.62 C7.39 565.38 6.46 566.13 5.51 566.91 C4.03 568.14 2.58 569.4 1.18 570.72 C-1.24 573 -2.4 574.02 -5.79 573.92 C-9.69 572.8 -12.08 570.81 -15 568.12 C-16.14 567.12 -17.28 566.12 -18.42 565.12 C-19.01 564.6 -19.59 564.09 -20.2 563.55 C-23.14 561.02 -26.19 558.63 -29.25 556.25 C-30.14 555.56 -30.14 555.56 -31.04 554.85 C-33.53 552.91 -36.02 550.98 -38.53 549.07 C-51.61 539.08 -63.81 527.37 -74.43 514.78 C-76.17 512.8 -78.04 511.01 -79.94 509.19 C-83.79 505.4 -86.83 501.25 -89.94 496.84 C-91.98 494.02 -94.14 491.36 -96.38 488.69 C-105.6 477.51 -113.36 465.55 -120.75 453.1 C-121.85 451.25 -122.97 449.4 -124.09 447.55 C-137.46 424.92 -148.32 400.11 -156.19 375.06 C-156.84 372.98 -157.5 370.9 -158.16 368.83 C-158.76 366.96 -159.35 365.09 -159.93 363.22 C-160.59 361.24 -161.3 359.27 -162.08 357.34 C-162.95 355.13 -163.49 353.1 -163.93 350.77 C-164.08 349.98 -164.24 349.18 -164.39 348.37 C-164.55 347.52 -164.71 346.68 -164.88 345.81 C-165.99 340.04 -167.14 334.3 -168.51 328.59 C-170.54 320.02 -171.94 311.4 -173.19 302.69 C-173.35 301.53 -173.52 300.37 -173.69 299.18 C-174.64 292.38 -175.32 285.61 -175.75 278.75 C-175.97 276.37 -176.4 274.3 -177 272 C-177.36 266.44 -177.44 262.62 -174 258 C-171.52 256.21 -168.94 254.65 -166.32 253.06 C-144.83 239.73 -127.03 221.49 -113.52 200.18 C-112.77 199.1 -112.77 199.1 -112 198 C-111.27 196.94 -110.53 195.87 -109.77 194.78 C-107 192 -107 192 -103.62 191.29 C-102.36 191.31 -101.1 191.32 -99.8 191.34 C-98.79 191.35 -98.79 191.35 -97.75 191.36 C-96.33 191.37 -94.91 191.4 -93.49 191.44 C-91.31 191.5 -89.13 191.52 -86.95 191.53 C-76.33 191.67 -76.33 191.67 -74 194 C-73.74 196.47 -73.74 196.47 -73.73 199.56 C-73.73 201.22 -73.73 201.22 -73.73 202.92 C-73.73 204.08 -73.74 205.24 -73.75 206.44 C-73.74 208.17 -73.74 208.17 -73.73 209.95 C-73.73 211.61 -73.73 211.61 -73.73 213.31 C-73.74 214.33 -73.74 215.35 -73.74 216.4 C-74 219 -74 219 -76 222 C-77.79 222.05 -79.57 222.08 -81.36 222.01 C-86.84 221.83 -90.66 221.92 -95.04 225.45 C-97.17 227.9 -98.98 230.56 -100.78 233.27 C-106.1 240.82 -113.03 247.28 -119.5 253.81 C-119.98 254.3 -120.46 254.79 -120.95 255.29 C-127.35 261.77 -133.8 267.85 -141.87 272.24 C-143.88 273.36 -143.88 273.36 -146 276 C-146.4 279.74 -145.62 283.31 -145 287 C-144.73 289.15 -144.49 291.31 -144.25 293.47 C-143.88 296.71 -143.47 299.95 -143.06 303.19 C-142.86 304.84 -142.65 306.5 -142.46 308.16 C-141.25 318.4 -139.44 327.89 -136.09 337.65 C-135.13 340.61 -134.5 343.37 -134.06 346.44 C-132.93 353.45 -130.34 360 -127.88 366.64 C-126.96 369.11 -126.06 371.59 -125.16 374.07 C-124.54 375.76 -123.93 377.44 -123.31 379.12 C-123.03 379.91 -122.74 380.69 -122.45 381.49 C-119.81 388.66 -116.78 395.56 -113.31 402.38 C-110.75 407.44 -108.27 412.53 -105.89 417.68 C-102.63 424.73 -99.2 431.46 -95 438 C-94.46 438.88 -93.91 439.76 -93.36 440.66 C-89.2 447.34 -84.7 453.7 -80 460 C-79.54 460.62 -79.08 461.24 -78.6 461.88 C-67.06 477.66 -67.06 477.66 -53.92 492.09 C-52.09 493.91 -50.42 495.79 -48.75 497.75 C-40.8 506.95 -31.94 515.94 -22 523 C-21.34 523 -20.68 523 -20 523 C-19.95 508.56 -19.92 494.12 -19.9 479.69 C-19.89 472.98 -19.87 466.28 -19.85 459.58 C-19.83 453.11 -19.82 446.65 -19.81 440.18 C-19.81 437.71 -19.8 435.24 -19.79 432.77 C-19.77 429.32 -19.77 425.87 -19.77 422.42 C-19.76 420.87 -19.76 420.87 -19.75 419.29 C-19.76 417.89 -19.76 417.89 -19.76 416.45 C-19.76 415.64 -19.76 414.82 -19.75 413.98 C-19.82 411.77 -19.82 411.77 -22 410 C-25.81 408.95 -29.49 408.85 -33.43 408.81 C-34.7 408.79 -35.98 408.78 -37.3 408.76 C-37.98 408.75 -38.65 408.75 -39.35 408.74 C-41.48 408.72 -43.6 408.69 -45.73 408.66 C-51 408.59 -56.28 408.53 -61.55 408.47 C-66.02 408.42 -70.49 408.37 -74.96 408.31 C-77.06 408.28 -79.16 408.26 -81.26 408.24 C-82.52 408.22 -83.79 408.21 -85.09 408.19 C-86.21 408.18 -87.33 408.16 -88.48 408.15 C-91 408 -91 408 -92 407 C-92.09 405.07 -92.11 403.14 -92.1 401.21 C-92.09 399.46 -92.09 399.46 -92.09 397.67 C-92.08 395.82 -92.08 395.82 -92.06 393.94 C-92.06 392.7 -92.05 391.47 -92.05 390.19 C-92.04 387.13 -92.02 384.06 -92 381 C-88.12 379.19 -85.09 378.76 -80.82 378.8 C-79.67 378.81 -78.51 378.82 -77.32 378.82 C-76.12 378.84 -74.92 378.86 -73.69 378.88 C-72.47 378.88 -71.25 378.89 -70 378.9 C-67 378.93 -64 378.96 -61 379 C-61 378.27 -61.01 377.55 -61.01 376.8 C-61.26 333.73 -61.45 290.67 -61.56 247.61 C-61.58 242.44 -61.59 237.27 -61.6 232.09 C-61.61 231.07 -61.61 230.04 -61.61 228.98 C-61.66 212.31 -61.75 195.64 -61.85 178.97 C-61.95 161.87 -62.01 144.77 -62.03 127.66 C-62.05 117.11 -62.1 106.56 -62.19 96 C-62.25 88.77 -62.26 81.53 -62.25 74.29 C-62.24 70.12 -62.25 65.94 -62.31 61.77 C-62.36 57.94 -62.37 54.12 -62.33 50.29 C-62.32 48.26 -62.37 46.22 -62.42 44.19 C-62.32 38.83 -62.2 35.39 -58.61 31.23 C-55.84 28.93 -53.05 26.93 -50 25 C-48.56 24 -47.12 23 -45.69 22 C-44.13 21 -42.57 20 -41 19 C-39.95 18.31 -38.9 17.62 -37.82 16.91 C-29.73 11.62 -21.49 6.64 -13 2 C-12.02 1.41 -11.04 0.82 -10.03 0.21 C-6.09 -1.37 -4.1 -1.1 0 0 Z " fill="#50CE8B" transform="translate(645,141)"/>
<path d="M0 0 C10.27 0.11 20.53 0.22 30.8 0.34 C35.56 0.39 40.33 0.45 45.1 0.5 C49.69 0.54 54.29 0.6 58.89 0.65 C60.64 0.67 62.4 0.69 64.16 0.71 C66.61 0.73 69.07 0.76 71.52 0.79 C72.62 0.8 72.62 0.8 73.74 0.81 C78.77 0.89 78.77 0.89 81 2 C81.06 6.46 81.09 10.92 81.12 15.38 C81.14 16.65 81.16 17.92 81.18 19.23 C81.18 20.44 81.19 21.65 81.2 22.9 C81.21 24.02 81.22 25.14 81.23 26.29 C81 29 81 29 79 31 C76.87 31.23 76.87 31.23 74.2 31.2 C73.2 31.19 72.21 31.18 71.18 31.18 C70.09 31.16 69.01 31.14 67.89 31.12 C66.78 31.12 65.67 31.11 64.52 31.1 C59.75 31.07 54.98 31.01 50.21 30.96 C46.73 30.92 43.25 30.9 39.77 30.88 C38.7 30.86 37.62 30.84 36.52 30.82 C30.94 30.79 26.23 30.99 21 33 C18.4 35.6 17.3 38.45 16.06 41.88 C14.47 46 12.57 49.38 10 53 C9.4 54.08 8.79 55.16 8.17 56.27 C-1.24 72.87 -16.3 87.42 -32 98 C-33.25 99.02 -34.5 100.04 -35.75 101.06 C-42.22 105.96 -50.57 109.74 -58.34 111.95 C-61.03 112.73 -61.03 112.73 -62.15 114.6 C-63.31 117.89 -63.27 121.03 -63.23 124.47 C-63.23 125.19 -63.23 125.9 -63.23 126.64 C-63.23 128.16 -63.22 129.67 -63.21 131.18 C-63.19 133.49 -63.19 135.8 -63.19 138.11 C-63.18 139.59 -63.17 141.06 -63.17 142.53 C-63.17 143.22 -63.17 143.91 -63.16 144.62 C-63.13 147.92 -62.85 150.82 -62 154 C-61.87 155.92 -61.78 157.84 -61.72 159.76 C-61.68 160.88 -61.64 162 -61.61 163.15 C-61.55 164.9 -61.55 164.9 -61.5 166.69 C-61.83 179.17 -61.83 179.17 -59 191 C-58.87 192.46 -58.77 193.92 -58.69 195.38 C-57.46 210.05 -53.61 224.75 -50 239 C-49.73 240.06 -49.46 241.13 -49.19 242.23 C-46.6 252.2 -43.53 261.98 -40.25 271.75 C-39.99 272.54 -39.72 273.33 -39.45 274.14 C-35.7 285.36 -31.71 296.37 -26.82 307.15 C-26.05 308.89 -25.34 310.66 -24.64 312.43 C-20.29 323.32 -14.35 333.31 -8.48 343.44 C-7.25 345.56 -6.03 347.69 -4.81 349.83 C-1.89 354.92 1.17 359.87 4.47 364.73 C6.18 367.27 7.81 369.85 9.44 372.44 C19.27 387.89 30.44 402.66 43 416 C44.03 417.12 45.05 418.23 46.07 419.35 C53.31 427.19 60.73 434.85 68.25 442.42 C69.23 443.42 70.22 444.41 71.2 445.4 C77.79 452.09 84.66 458.16 92 464 C93.67 465.39 95.34 466.79 97 468.19 C110.58 479.27 124.94 489.29 139.79 498.59 C141.28 499.54 142.74 500.53 144.18 501.55 C146.09 502.87 147.88 504.06 150 505 C152.76 504.67 152.76 504.67 155 503 C156.17 502.32 156.17 502.32 157.37 501.62 C160.25 499.76 163.13 497.89 166 496 C166.59 495.62 167.17 495.23 167.78 494.84 C175.41 489.86 182.87 484.74 190.11 479.2 C192.04 477.73 193.99 476.28 195.95 474.86 C202.67 469.97 208.78 464.69 214.8 458.99 C217.01 456.89 219.29 454.89 221.61 452.91 C226.94 448.27 231.91 443.24 236.9 438.23 C238.56 436.57 240.22 434.91 241.89 433.25 C247.47 427.67 252.88 422.01 258 416 C259.46 414.41 260.91 412.83 262.38 411.25 C266.46 406.72 270.14 401.98 273.75 397.06 C275.96 394.05 278.23 391.09 280.5 388.12 C284.94 382.21 288.9 376.07 292.83 369.82 C294.15 367.77 295.52 365.76 296.89 363.74 C300.23 358.74 303.19 353.56 306.12 348.31 C311.83 338.17 311.83 338.17 314.27 334.57 C316.32 331.52 317.6 328.39 319 325 C319.6 323.82 320.2 322.65 320.81 321.44 C325.05 313.08 328.52 304.34 331.95 295.63 C333.03 292.92 334.17 290.25 335.32 287.57 C347.79 257.63 357.14 224.3 359.74 191.94 C360 190 360 190 361 189 C362.37 178.91 362.33 168.61 362.61 158.46 C362.64 157.25 362.68 156.04 362.72 154.8 C362.75 153.71 362.78 152.62 362.81 151.49 C363 149 363 149 364 148 C364.24 143.8 364.23 139.59 364.24 135.38 C364.25 133.27 364.28 131.16 364.31 129.05 C364.32 127.71 364.32 126.36 364.33 125.02 C364.34 123.18 364.34 123.18 364.36 121.31 C363.97 117.73 362.99 115.94 361 113 C361 112.34 361 111.68 361 111 C359.49 110.86 359.49 110.86 357.94 110.71 C353.87 110.12 350.51 108.55 346.94 106.56 C345.97 106.03 345.97 106.03 344.98 105.49 C315.29 88.84 292.47 63.65 280 32 C278.7 32.02 277.4 32.04 276.06 32.06 C274.71 32.08 273.35 32.07 272 32 C271.67 31.67 271.34 31.34 271 31 C269.55 30.91 268.1 30.88 266.64 30.89 C265.7 30.89 264.76 30.89 263.79 30.89 C262.75 30.89 261.71 30.9 260.64 30.9 C259.55 30.9 258.46 30.91 257.34 30.91 C254.96 30.91 252.59 30.92 250.21 30.92 C246.45 30.94 242.69 30.94 238.93 30.95 C230.25 30.96 221.58 30.98 212.9 31.01 C204.34 31.03 195.78 31.04 187.22 31.06 C183.51 31.06 179.81 31.07 176.11 31.09 C173.83 31.09 171.55 31.09 169.27 31.1 C168.24 31.1 167.21 31.11 166.16 31.11 C160.67 31.11 155.43 30.79 150 30 C148.72 29.88 147.44 29.75 146.12 29.62 C143 29 143 29 141 26 C140.68 23.46 140.68 23.46 140.59 20.46 C140.55 19.38 140.51 18.31 140.47 17.21 C140.42 15.53 140.42 15.53 140.38 13.81 C140.34 12.68 140.3 11.55 140.26 10.38 C140.16 7.59 140.08 4.8 140 2 C143.53 -0.18 146.34 -0.24 150.44 -0.2 C151.41 -0.2 151.41 -0.2 152.39 -0.2 C154.55 -0.18 156.71 -0.16 158.87 -0.14 C160.41 -0.12 161.96 -0.12 163.51 -0.11 C167.71 -0.08 171.91 -0.04 176.11 -0 C180.5 0.04 184.89 0.07 189.28 0.1 C197.59 0.16 205.9 0.23 214.21 0.3 C223.68 0.38 233.14 0.46 242.6 0.53 C262.07 0.67 281.53 0.83 301 1 C304.3 8.64 304.3 8.64 305.46 12.34 C305.71 13.09 305.95 13.85 306.2 14.62 C306.69 16.16 307.18 17.7 307.66 19.24 C309.89 26.13 312.75 32.46 316.88 38.44 C318.42 40.68 319.94 42.9 321.37 45.22 C335.74 68.28 362.24 82.38 387.53 89.97 C390 91 390 91 392 94 C393.41 101.76 393.15 109.87 393.13 117.73 C393.13 119.51 393.13 119.51 393.14 121.32 C393.14 123.82 393.13 126.32 393.13 128.82 C393.13 132.59 393.13 136.37 393.14 140.14 C393.14 157.35 392.82 174.26 390.25 191.31 C390.08 192.49 389.9 193.67 389.72 194.88 C384.29 231.08 384.29 231.08 379.94 244.92 C378.92 248.26 378.15 251.6 377.38 255 C372.55 275.12 365.08 294.98 357 314 C356.71 314.7 356.41 315.4 356.11 316.13 C349.15 332.67 340.86 348.41 332 364 C331.52 364.85 331.04 365.69 330.55 366.57 C329.08 369.15 327.6 371.73 326.12 374.31 C325.67 375.11 325.22 375.9 324.75 376.72 C322.42 380.76 319.99 384.4 317 388 C315.73 389.86 314.48 391.74 313.25 393.62 C307.32 402.57 301.07 411.04 294.06 419.17 C291.23 422.48 288.62 425.85 286.12 429.44 C281.48 435.99 275.94 441.67 270.42 447.49 C268.74 449.28 267.14 451.13 265.56 453 C257.71 462.06 249.05 470.42 239.65 477.85 C236.79 480.17 234.08 482.62 231.38 485.12 C226.76 489.36 221.99 493.22 217 497 C216.04 497.76 215.07 498.52 214.08 499.3 C207.1 504.79 199.93 509.82 192.5 514.68 C189.53 516.63 186.63 518.67 183.75 520.75 C179.57 523.71 175.21 526.13 170.68 528.52 C166.62 530.76 162.82 533.36 159 536 C154.62 538.92 151.13 539.01 146 538 C141.39 535.72 137.24 532.88 133 530 C131.3 528.97 129.59 527.94 127.88 526.94 C119.01 521.63 110.4 516.01 102 510 C101.1 509.36 100.21 508.72 99.28 508.06 C93.89 504.18 88.63 500.18 83.46 496 C81.82 494.66 80.17 493.34 78.5 492.04 C73.42 488.03 68.56 483.87 63.81 479.47 C61.39 477.34 58.93 475.38 56.39 473.4 C50.98 469.1 46.09 464.39 41.23 459.49 C39.81 458.06 38.38 456.64 36.95 455.22 C32.09 450.35 27.56 445.45 23.49 439.91 C21.97 437.97 20.35 436.31 18.56 434.62 C14.88 431.06 12.05 427.05 9.09 422.88 C7.05 420.07 4.91 417.41 2.69 414.75 C-5 405.46 -12.1 395.73 -18.45 385.48 C-19.93 383.11 -21.48 380.8 -23.06 378.5 C-25.87 374.33 -28.26 369.99 -30.63 365.56 C-31.74 363.48 -32.88 361.42 -34.06 359.38 C-42.81 344.14 -50.68 328.41 -57 312 C-57.64 310.4 -58.29 308.79 -58.94 307.19 C-59.63 305.46 -60.31 303.73 -61 302 C-61.42 300.95 -61.83 299.91 -62.26 298.83 C-64.5 293.11 -66.59 287.43 -68.23 281.51 C-68.87 279.43 -69.62 277.38 -70.4 275.34 C-71.92 271.3 -73.22 267.24 -74.43 263.11 C-74.64 262.38 -74.85 261.65 -75.07 260.9 C-77.2 253.5 -78.99 246.04 -80.69 238.53 C-81.19 236.3 -81.71 234.07 -82.22 231.84 C-84.05 223.87 -85.57 215.97 -86.6 207.84 C-86.93 205.49 -87.41 203.3 -88 201 C-88.19 199.61 -88.36 198.21 -88.5 196.81 C-88.58 196.03 -88.67 195.25 -88.75 194.45 C-88.92 192.82 -89.08 191.18 -89.25 189.55 C-89.33 188.77 -89.42 187.99 -89.5 187.19 C-89.57 186.48 -89.64 185.77 -89.72 185.04 C-89.95 183.02 -89.95 183.02 -90.5 181.15 C-94.07 165.87 -92.15 148.39 -92.13 132.74 C-92.12 128.91 -92.13 125.09 -92.13 121.26 C-92.14 118.3 -92.14 115.33 -92.13 112.36 C-92.13 110.95 -92.13 109.54 -92.14 108.13 C-92.14 106.17 -92.13 104.2 -92.13 102.24 C-92.13 101.13 -92.13 100.02 -92.13 98.87 C-92.02 96.37 -91.88 94.33 -91 92 C-88.66 90.77 -88.66 90.77 -85.57 89.75 C-84.47 89.37 -83.36 88.99 -82.22 88.6 C-81.05 88.21 -79.89 87.83 -78.69 87.44 C-76.4 86.67 -74.11 85.9 -71.82 85.12 C-70.8 84.79 -69.78 84.45 -68.73 84.1 C-66.07 83.03 -64.26 81.75 -62 80 C-60.85 79.63 -59.69 79.26 -58.5 78.88 C-45.09 74.07 -32.81 60.88 -24 50 C-23.29 49.17 -23.29 49.17 -22.56 48.32 C-13.52 37.22 -8.07 23.57 -3.7 10.09 C-2.99 7.96 -2.21 5.86 -1.42 3.76 C-1.15 3.05 -0.89 2.34 -0.61 1.61 C-0.41 1.08 -0.21 0.55 0 0 Z " fill="#50CE8B" transform="translate(489,260)"/>
<path d="M0 0 C1.38 0.04 2.76 0.08 4.14 0.12 C4.86 0.14 5.59 0.17 6.34 0.19 C7.88 0.23 9.41 0.28 10.95 0.33 C13.31 0.41 15.67 0.48 18.03 0.55 C19.52 0.59 21.02 0.64 22.51 0.69 C23.22 0.71 23.93 0.73 24.66 0.75 C29.66 0.92 29.66 0.92 31.89 2.04 C32.68 4.43 32.68 4.43 33.44 7.64 C33.72 8.82 34.01 10 34.3 11.22 C34.6 12.5 34.89 13.78 35.2 15.1 C35.51 16.42 35.83 17.74 36.14 19.06 C38.31 28.28 40.3 37.54 42.18 46.82 C43.35 52.55 44.62 58.24 46.08 63.91 C50.23 80.15 50.23 80.15 49.89 88.04 C51.21 88.37 52.53 88.7 53.89 89.04 C54.24 87.36 54.24 87.36 54.59 85.65 C56.42 76.85 58.32 68.06 60.33 59.29 C64.08 42.87 67.82 26.49 70.55 9.87 C70.69 9 70.84 8.13 70.99 7.24 C71.18 6.09 71.18 6.09 71.37 4.92 C71.89 3.04 71.89 3.04 73.89 1.04 C76.39 0.85 78.77 0.78 81.27 0.81 C82.36 0.81 82.36 0.81 83.47 0.81 C85.01 0.81 86.55 0.82 88.08 0.83 C90.45 0.85 92.81 0.85 95.17 0.85 C96.66 0.86 98.15 0.86 99.64 0.87 C100.35 0.87 101.06 0.87 101.8 0.87 C106.77 0.92 106.77 0.92 107.89 2.04 C107.67 8.1 106.41 14.16 105.26 20.1 C105.1 20.98 104.93 21.85 104.75 22.76 C102.29 35.37 99.47 47.91 96.68 60.46 C96.02 63.47 95.35 66.48 94.69 69.49 C92.85 77.84 90.93 86.17 88.92 94.49 C88.03 98.27 87.28 102.07 86.53 105.88 C84.9 114.09 83.12 122.27 81.3 130.44 C80.75 132.89 80.21 135.34 79.67 137.8 C79.33 139.36 78.98 140.93 78.63 142.49 C78.47 143.22 78.31 143.95 78.14 144.71 C77 149.81 77 149.81 75.89 152.04 C69.96 152.25 64.04 152.45 58.11 152.63 C56.09 152.69 54.08 152.76 52.06 152.84 C49.16 152.94 46.27 153.03 43.37 153.11 C42.01 153.17 42.01 153.17 40.63 153.23 C39.37 153.26 39.37 153.26 38.08 153.29 C37.35 153.31 36.61 153.34 35.84 153.36 C33.3 152.94 32.47 152.03 30.89 150.04 C30.05 147.68 30.05 147.68 29.39 144.92 C29.14 143.9 28.89 142.88 28.64 141.83 C28.27 140.23 28.27 140.23 27.89 138.6 C27.64 137.57 27.39 136.54 27.14 135.48 C26.64 133.39 26.14 131.31 25.65 129.22 C24.86 125.94 24.07 122.66 23.26 119.38 C23.02 118.4 22.78 117.42 22.54 116.42 C21.97 114.05 21.97 114.05 20.89 112.04 C20.67 110.13 20.44 108.22 20.27 106.3 C19.94 103.93 19.94 103.93 18.96 101.36 C17.61 97.17 16.94 93 16.26 88.66 C16.13 87.83 16 87 15.86 86.14 C15.53 84.11 15.21 82.07 14.89 80.04 C13.4 79.54 13.4 79.54 11.89 79.04 C7.66 92.07 3.94 105.14 1.39 118.62 C0.81 121.43 0.1 124.2 -0.61 126.98 C-1.83 131.72 -2.76 136.43 -3.49 141.27 C-4.04 143.72 -4.76 145.87 -5.65 148.21 C-6.06 149.29 -6.06 149.29 -6.48 150.38 C-6.69 150.93 -6.9 151.48 -7.11 152.04 C-13.04 152.16 -18.96 152.25 -24.89 152.31 C-26.91 152.34 -28.92 152.37 -30.94 152.41 C-33.84 152.48 -36.73 152.5 -39.63 152.53 C-40.53 152.55 -41.44 152.58 -42.37 152.6 C-44.72 152.61 -46.82 152.57 -49.11 152.04 C-51.95 148.75 -52.67 145.44 -53.49 141.23 C-53.73 139.99 -53.98 138.74 -54.24 137.47 C-54.38 136.77 -54.51 136.07 -54.65 135.35 C-55.54 130.84 -56.49 126.35 -57.42 121.85 C-57.63 120.84 -57.84 119.83 -58.06 118.79 C-59.74 110.76 -61.47 102.74 -63.24 94.73 C-63.48 93.62 -63.72 92.52 -63.97 91.39 C-65.08 86.39 -66.25 81.43 -67.64 76.51 C-69.26 70.68 -70.39 64.8 -71.49 58.85 C-71.92 56.57 -72.35 54.3 -72.78 52.02 C-73 50.87 -73.22 49.72 -73.44 48.53 C-74.52 42.9 -75.65 37.28 -76.8 31.66 C-77 30.65 -77.2 29.64 -77.41 28.6 C-77.6 27.67 -77.8 26.73 -78 25.76 C-78.16 24.95 -78.33 24.13 -78.5 23.28 C-79.04 21.01 -79.04 21.01 -80.15 18.97 C-81.57 16.12 -81.7 13.18 -82.11 10.04 C-82.44 9.38 -82.77 8.72 -83.11 8.04 C-83.11 5.73 -83.11 3.42 -83.11 1.04 C-70.57 1.04 -58.03 1.04 -45.11 1.04 C-42.62 10.39 -40.29 19.51 -38.49 28.98 C-38.08 31.09 -37.67 33.2 -37.26 35.31 C-37.09 36.22 -36.91 37.13 -36.73 38.07 C-36.11 41.05 -35.38 43.99 -34.63 46.93 C-33.76 50.44 -33.02 53.98 -32.27 57.52 C-31.93 59.11 -31.58 60.7 -31.24 62.29 C-30.7 64.77 -30.17 67.24 -29.65 69.72 C-29.13 72.13 -28.61 74.54 -28.08 76.96 C-27.85 78.06 -27.85 78.06 -27.62 79.19 C-26.71 83.31 -25.51 86.56 -23.11 90.04 C-22.9 88.82 -22.7 87.6 -22.48 86.35 C-19 66.4 -14.9 46.46 -9.8 26.85 C-8.34 21.23 -7.34 15.66 -6.6 9.9 C-4.91 0.06 -4.91 0.06 0 0 Z " fill="#50CE8B" transform="translate(449.111083984375,886.96240234375)"/>
<path d="M0 0 C0.77 0.35 1.54 0.71 2.34 1.07 C2.91 1.34 3.48 1.6 4.06 1.88 C3.57 1.38 3.57 1.38 3.06 0.88 C8.08 -4.14 18.61 -2.39 25.25 -2.44 C26.53 -2.47 27.82 -2.5 29.14 -2.53 C30.98 -2.54 30.98 -2.54 32.86 -2.55 C34.53 -2.57 34.53 -2.57 36.25 -2.59 C39.06 -2.12 39.06 -2.12 40.72 -0.39 C42.25 2.18 42.44 3.56 42.43 6.53 C42.44 7.45 42.44 8.38 42.45 9.34 C42.44 10.35 42.43 11.37 42.42 12.41 C42.42 13.48 42.42 14.55 42.43 15.66 C42.43 19.2 42.41 22.75 42.39 26.29 C42.39 28.75 42.39 31.21 42.38 33.67 C42.38 38.82 42.37 43.97 42.34 49.12 C42.32 55.74 42.3 62.36 42.3 68.97 C42.3 74.05 42.29 79.12 42.27 84.2 C42.27 86.64 42.26 89.08 42.26 91.52 C42.25 94.92 42.24 98.32 42.22 101.73 C42.22 102.75 42.22 103.76 42.22 104.81 C42.21 105.74 42.21 106.66 42.2 107.61 C42.2 108.41 42.2 109.22 42.19 110.05 C42.06 111.88 42.06 111.88 41.06 112.88 C38.81 112.96 36.55 112.98 34.29 112.97 C33.27 112.97 33.27 112.97 32.23 112.97 C30.05 112.96 27.87 112.95 25.69 112.94 C24.22 112.93 22.76 112.93 21.3 112.92 C17.55 112.91 13.81 112.89 10.06 112.88 C9.07 112.88 8.08 112.88 7.06 112.88 C6.46 112.52 5.87 112.17 5.25 111.81 C2.16 110.49 0.26 111.01 -2.94 111.88 C-3.6 112.37 -4.26 112.87 -4.94 113.38 C-11.51 118.3 -25.1 116.45 -32.94 115.88 C-46.91 113.39 -59.32 105.54 -67.53 94 C-73.82 84.5 -78.11 74.86 -78.79 63.39 C-78.92 61.17 -79.19 59.06 -79.56 56.88 C-79.94 53.88 -79.94 53.88 -78.94 50.88 C-78.81 49.02 -78.71 47.17 -78.62 45.31 C-78.14 39.16 -76.57 34.42 -73.94 28.88 C-73.53 27.91 -73.12 26.94 -72.69 25.94 C-69.12 18 -64.45 12.59 -57.94 6.88 C-57.31 6.29 -56.69 5.7 -56.04 5.1 C-41.54 -7.32 -16.65 -7.68 0 0 Z " fill="#50CE8B" transform="translate(854.9375,926.125)"/>
<path d="M0 0 C1.27 0.84 1.27 0.84 2.56 1.69 C12.42 11.04 20.15 26.49 21.25 40.11 C21.33 43.41 21.31 46.7 21.25 50 C21.24 51.13 21.24 52.26 21.23 53.43 C21.16 61.69 21.16 61.69 20 64 C16.7 65.1 14.25 65.13 10.77 65.13 C9.49 65.13 8.2 65.14 6.88 65.14 C5.47 65.14 4.07 65.14 2.66 65.13 C1.22 65.13 -0.22 65.13 -1.66 65.14 C-4.68 65.14 -7.7 65.14 -10.72 65.13 C-14.59 65.12 -18.45 65.13 -22.32 65.13 C-25.3 65.14 -28.27 65.14 -31.25 65.13 C-32.68 65.13 -34.1 65.13 -35.53 65.14 C-37.52 65.14 -39.52 65.13 -41.51 65.13 C-43.22 65.13 -43.22 65.13 -44.95 65.13 C-47.75 65.01 -50.28 64.64 -53 64 C-49.8 70.79 -42.83 75.3 -36 78 C-33.23 78.54 -30.79 78.85 -28 79 C-27.01 79.06 -26.03 79.13 -25.01 79.2 C-16.25 79.5 -8.5 78.06 -0.03 75.97 C9.34 73.67 9.34 73.67 12 75 C12.2 79.44 12.38 83.87 12.56 88.31 C12.65 90.21 12.65 90.21 12.73 92.14 C12.78 93.35 12.83 94.56 12.88 95.8 C12.95 97.47 12.95 97.47 13.02 99.18 C13 102 13 102 12 105 C-0.01 112.09 -13.62 112.17 -27.12 112.31 C-28.21 112.33 -29.29 112.35 -30.41 112.37 C-41.01 112.36 -50.69 110.24 -60.12 105.38 C-60.8 105.03 -61.48 104.69 -62.18 104.33 C-68.3 101.08 -73.22 97.02 -78 92 C-78.67 91.33 -79.33 90.66 -80.02 89.97 C-87.42 82.11 -89.51 73.66 -91.39 63.26 C-91.92 60.01 -91.92 60.01 -93 57 C-93.99 47.24 -91.84 38.25 -89 29 C-88.51 27.38 -88.51 27.38 -88.01 25.73 C-83.56 13.34 -72.73 2.62 -61.17 -3.5 C-42.61 -12.26 -16.85 -12.4 0 0 Z " fill="#50CE8B" transform="translate(654,930)"/>
<path d="M0 0 C2 2 2 2 2.23 5.26 C2.23 6.64 2.22 8.03 2.2 9.41 C2.19 10.14 2.19 10.87 2.19 11.63 C2.18 13.96 2.15 16.29 2.12 18.62 C2.11 20.21 2.11 21.79 2.1 23.37 C2.08 27.24 2.04 31.12 2 35 C0 36 0 36 -1.95 35.44 C-3.02 35.01 -3.02 35.01 -4.12 34.56 C-4.85 34.28 -5.57 33.99 -6.32 33.69 C-7.15 33.35 -7.15 33.35 -8 33 C-8 33.66 -8 34.32 -8 35 C-10 36 -10 36 -12.57 36.25 C-18.31 36.82 -22.19 37.39 -26.12 41.81 C-29.94 46.72 -31.24 51.11 -31.32 57.3 C-31.34 58.55 -31.36 59.81 -31.38 61.09 C-31.39 62.45 -31.4 63.81 -31.41 65.16 C-31.43 66.56 -31.45 67.96 -31.47 69.36 C-31.52 73.03 -31.56 76.7 -31.6 80.37 C-31.64 84.11 -31.69 87.85 -31.74 91.59 C-31.93 104.29 -31.93 104.29 -32 117 C-43.67 117 -55.33 117 -67 117 C-68.18 114.64 -68.14 113.19 -68.18 110.56 C-68.19 109.63 -68.21 108.69 -68.22 107.73 C-68.23 106.7 -68.24 105.67 -68.25 104.62 C-68.27 103.54 -68.28 102.46 -68.3 101.34 C-68.34 97.76 -68.38 94.18 -68.42 90.59 C-68.44 88.76 -68.44 88.76 -68.46 86.9 C-68.54 80.44 -68.6 73.99 -68.67 67.53 C-68.72 62.18 -68.78 56.82 -68.85 51.47 C-68.94 45.01 -69.01 38.56 -69.07 32.1 C-69.1 29.64 -69.13 27.17 -69.16 24.71 C-69.21 21.27 -69.24 17.83 -69.26 14.38 C-69.28 13.36 -69.3 12.33 -69.32 11.27 C-69.32 10.34 -69.33 9.4 -69.33 8.44 C-69.34 7.63 -69.35 6.81 -69.36 5.97 C-69.24 5.32 -69.12 4.67 -69 4 C-64.2 0.8 -58.94 1.67 -53.29 1.68 C-51.21 1.69 -49.13 1.66 -47.04 1.64 C-45.71 1.64 -44.38 1.64 -43.04 1.64 C-41.84 1.63 -40.63 1.63 -39.39 1.63 C-35.66 2.04 -33.31 3.31 -30 5 C-27.11 4.42 -24.78 3.78 -22.06 2.75 C-14.56 0.05 -8.03 -1.73 0 0 Z " fill="#50CE8B" transform="translate(764,922)"/>
<path d="M0 0 C7.18 3.63 11.44 10.5 13.89 17.95 C15.36 25.84 15.72 36.17 11.3 43.16 C9.12 46 6.79 48.61 4.3 51.16 C3.85 51.68 3.4 52.19 2.93 52.72 C-1.12 56.3 -9.27 55.65 -14.48 55.46 C-20.07 54.72 -24.17 51.35 -27.7 47.16 C-32.08 40.87 -32.37 34.78 -32.32 27.29 C-32.36 26.26 -32.39 25.24 -32.42 24.18 C-32.43 16.48 -30.5 11.21 -25.7 5.16 C-18.57 -1.79 -9.5 -2.94 0 0 Z " fill="#FAFCFC" transform="translate(845.69921875,954.8359375)"/>
<path d="M0 0 C1.24 -0 1.24 -0 2.5 -0 C8.42 0.05 13.82 0.68 19.56 2.19 C17.58 6.58 14.72 10.36 11.81 14.18 C9.23 17.64 7.14 20.95 5.36 24.89 C2.87 29.94 0.57 34.29 -4.44 37.19 C-14.5 39.39 -26.35 39.18 -36.44 37.19 C-38.37 35.63 -38.37 35.63 -39.44 34.19 C-38.7 33.36 -37.97 32.53 -37.21 31.67 C-34.3 28.17 -32.16 24.43 -30 20.44 C-29.22 19.02 -28.44 17.61 -27.66 16.2 C-27.28 15.52 -26.91 14.83 -26.52 14.13 C-20.4 3.15 -20.4 3.15 -18.44 1.19 C-12.36 0.1 -6.16 -0.01 0 0 Z " fill="#50CE8B" transform="translate(642.4375,870.8125)"/>
<path d="M0 0 C4.63 2.33 7.17 5.37 9.5 9.94 C9.75 10.96 9.75 10.96 10 12 C9 13 9 13 5.67 13.11 C4.2 13.11 2.72 13.11 1.25 13.1 C0.47 13.1 -0.3 13.09 -1.1 13.09 C-3.59 13.09 -6.08 13.08 -8.56 13.06 C-10.24 13.06 -11.93 13.05 -13.61 13.05 C-17.74 13.04 -21.87 13.02 -26 13 C-26.66 11.68 -27.32 10.36 -28 9 C-26.75 7.87 -25.5 6.75 -24.25 5.62 C-23.55 5 -22.86 4.37 -22.14 3.73 C-15.68 -1.48 -7.9 -1.03 0 0 Z " fill="#F6FCFA" transform="translate(629,954)"/>
<path d="M0 0 C0.33 0 0.66 0 1 0 C1.03 0.66 1.05 1.31 1.08 1.99 C1.19 4.95 1.31 7.91 1.44 10.88 C1.48 11.91 1.52 12.94 1.56 14 C1.6 14.99 1.64 15.98 1.68 16.99 C1.72 17.9 1.76 18.81 1.79 19.75 C1.87 22.03 1.87 22.03 3 24 C5.32 24.43 7.66 24.74 10 25 C11.16 25.17 12.33 25.34 13.53 25.52 C18.84 26.18 24.12 26.13 29.46 26.11 C30.59 26.11 31.71 26.11 32.87 26.11 C36.56 26.11 40.25 26.11 43.94 26.1 C46.5 26.1 49.07 26.09 51.64 26.09 C57.69 26.09 63.74 26.08 69.8 26.07 C76.69 26.06 83.58 26.06 90.48 26.05 C104.65 26.04 118.83 26.02 133 26 C132.67 26.99 132.34 27.98 132 29 C116.83 29.02 101.66 29.04 86.49 29.05 C79.45 29.06 72.41 29.06 65.36 29.08 C58.57 29.09 51.77 29.09 44.98 29.09 C42.39 29.1 39.79 29.1 37.2 29.11 C33.57 29.11 29.94 29.11 26.31 29.11 C24.69 29.12 24.69 29.12 23.05 29.12 C22.06 29.12 21.06 29.12 20.04 29.12 C19.18 29.12 18.33 29.12 17.44 29.12 C15 29 15 29 12.34 28.46 C9.96 27.83 9.96 27.83 7.44 28.56 C4.51 29.09 3.43 28.65 1 27 C-0.33 24.34 -0.11 22.31 -0.1 19.34 C-0.09 18.21 -0.09 17.09 -0.09 15.94 C-0.08 14.76 -0.07 13.59 -0.06 12.38 C-0.06 11.19 -0.05 10.01 -0.05 8.79 C-0.04 5.86 -0.02 2.93 0 0 Z " fill="#DFF6EA" transform="translate(629,264)"/>
<path d="M0 0 C0.33 0 0.66 0 1 0 C1.33 45.87 1.66 91.74 2 139 C15.37 139.5 15.37 139.5 29 140 C29.99 142.48 29.99 142.48 31 145 C29.68 144.34 28.36 143.68 27 143 C27 142.34 27 141.68 27 141 C18.42 141 9.84 141 1 141 C-1 137.01 -1.24 135.6 -1.2 131.32 C-1.2 130.16 -1.19 129 -1.19 127.81 C-1.17 126.54 -1.15 125.27 -1.14 123.97 C-1.12 122.62 -1.12 121.27 -1.11 119.92 C-1.08 116.26 -1.04 112.59 -1 108.93 C-0.96 105.1 -0.93 101.27 -0.9 97.44 C-0.84 90.19 -0.77 82.94 -0.7 75.69 C-0.62 67.44 -0.54 59.19 -0.47 50.93 C-0.33 33.96 -0.17 16.98 0 0 Z " fill="#C6F0D8" transform="translate(695,380)"/>
<path d="M0 0 C1.53 0 1.53 0 3.09 0 C4.73 0.01 4.73 0.01 6.4 0.02 C7.52 0.02 8.65 0.02 9.8 0.02 C13.39 0.03 16.98 0.04 20.56 0.05 C23 0.06 25.43 0.06 27.87 0.06 C33.83 0.08 39.79 0.09 45.75 0.11 C45.42 1.1 45.09 2.09 44.75 3.11 C26.6 3.11 8.45 3.11 -10.25 3.11 C-10.25 2.45 -10.25 1.79 -10.25 1.11 C-6.77 0.32 -3.57 -0.01 0 0 Z " fill="#DEF6E9" transform="translate(522.249267578125,289.886474609375)"/>
<path d="M0 0 C9.57 0 19.14 0 29 0 C29.33 0.99 29.66 1.98 30 3 C25.56 3.09 21.13 3.14 16.69 3.19 C14.79 3.23 14.79 3.23 12.86 3.26 C11.05 3.28 11.05 3.28 9.2 3.29 C7.53 3.32 7.53 3.32 5.82 3.34 C3 3 3 3 0 0 Z " fill="#C6F0D8" transform="translate(616,994)"/>
<path d="M0 0 C0.33 0 0.66 0 1 0 C1.03 0.66 1.05 1.31 1.08 1.99 C1.19 4.95 1.31 7.91 1.44 10.88 C1.48 11.91 1.52 12.94 1.56 14 C1.6 14.99 1.64 15.98 1.68 16.99 C1.72 17.9 1.76 18.81 1.79 19.75 C1.87 22.03 1.87 22.03 3 24 C6.74 24.71 10.19 25 14 25 C14 25.99 14 26.98 14 28 C12.59 28.22 11.17 28.43 9.75 28.62 C8.57 28.8 8.57 28.8 7.36 28.98 C4.64 29 3.27 28.47 1 27 C-0.33 24.34 -0.11 22.31 -0.1 19.34 C-0.09 18.21 -0.09 17.09 -0.09 15.94 C-0.08 14.76 -0.07 13.59 -0.06 12.38 C-0.06 11.19 -0.05 10.01 -0.05 8.79 C-0.04 5.86 -0.02 2.93 0 0 Z " fill="#B5EACD" transform="translate(629,264)"/>
<path d="M0 0 C0.66 0.66 1.32 1.32 2 2 C4.81 2.37 4.81 2.37 8.1 2.41 C9.31 2.45 10.52 2.49 11.77 2.53 C13.04 2.56 14.32 2.59 15.62 2.62 C16.9 2.66 18.18 2.7 19.5 2.74 C22.67 2.84 25.83 2.92 29 3 C29.66 4.65 30.32 6.3 31 8 C29.68 7.34 28.36 6.68 27 6 C27 5.34 27 4.68 27 4 C18.42 4 9.84 4 1 4 C0.67 2.68 0.34 1.36 0 0 Z " fill="#B8EBCF" transform="translate(695,517)"/>
</svg>
